<?xml version="1.0" encoding="UTF-8" standalone="no"?>
<svg
  viewBox="0 0 30 30"
  width="25px"
  height="25px"
  xmlns="http://www.w3.org/2000/svg"
>
  <path
    d="M24.602 15.245c-.021-.021-.043-.042-.087-.042l-.021-.02c-.022-.021-.044-.021-.044-.042l-.022-.02c-.021 0-.043-.022-.043-.022l-.044-.02c-.021 0-.043-.021-.043-.021l-.043-.02c-.022 0-.044-.022-.044-.022-.022 0-.022 0-.043-.02l-.066-.021c-.021 0-.021 0-.043-.021l-.065-.02h-.022l-.087-.022h-.043c-.022 0-.044 0-.066-.02h-.5c-.13-2.762.13-5.566-.608-8.224 2.804-.956.608-4.632-1.826-2.991-1.608-1.33-3.825-1.62-6.15-1.62-2.283.146-4.435.602-5.956 1.745-.609-.291-1.196-.374-1.717-.229v.021a.168.168 0 0 0-.087.042.168.168 0 0 0-.087.041h-.022c-.022 0-.043.02-.087.042h-.022l-.065.041h-.022l-.065.042H6.54l-.065.041s-.021 0-.021.021l-.066.041s-.021 0-.021.021l-.066.042s-.021 0-.021.02l-.066.042-.021.02c-.022.022-.044.022-.044.042l-.021.021-.044.042-.022.02c-.021.021-.021.042-.043.042l-.022.02c-.022.022-.022.042-.043.042l-.022.021c-.022.02-.022.042-.044.042l-.021.02c-.022.021-.022.042-.044.042l-.021.02c-.022.021-.022.042-.044.042l-.022.021-.021.062s0 .021-.022.021l-.022.062s0 .021-.022.021l-.021.062s0 .021-.022.021l-.022.063s0 .02-.022.02c.087.063.087.083.087.083v.021l-.021.062v.021c0 .021 0 .042-.022.062v.644c0 .021 0 .042.022.063v.02l.021.063v.02l.022.063s0 .02.022.02l.022.063s0 .02.021.02l.022.063s0 .02.022.02l.043.063s0 .02.022.02l.043.063s0 .02.022.02l.044.063.021.02.066.063.065.062h.022c.217.187.434.333.869.457v-.041c-.913 2.617-.152 5.254-.109 7.954-.13 0-.152.083-.37.104H6.41c-.022 0-.065 0-.109.02-.021 0-.065 0-.087.021l-.086.021h-.022l-.087.02h-.022l-.065.022H5.91l-.065.02s-.022 0-.022.021l-.065.02-.043.022c-.022 0-.044.02-.044.02l-.043.021-.044.021c-.022 0-.043.02-.043.02l-.044.022-.087.062c-.021.02-.043.041-.065.041l-.087.083-.022.021c-.021.042-.065.083-.087.104l-.043.062-.065.125-.022.062v.063c0 .103.044.186.196.249.043.768.847.415 1.217.166l.022-.02a.244.244 0 0 1 .13-.063h.022l.043-.02c.022 0 .022 0 .044-.022.043-.02.087-.02.108-.041.022 0 .022-.021.022-.042l.022-.02a.573.573 0 0 0 .043-.25l.022-.27v.374c-.109 2.72-.87 6.376.717 8.826a4.7 4.7 0 0 0 1.022 1.122H8.54a1.203 1.203 0 0 1-.174.125l-.195.124-.066.042-.13.083-.196.145-.239.208c-.043.041-.065.083-.087.104l-.087.124-.043.063a.286.286 0 0 0-.044.124l-.021.062c-.044.167 0 .354.13.561l.087.083h.044a.17.17 0 0 1 .087.021c.043.083.26.52.847.187.609-.312 1.022-.955 1.76-1.06l-.108-.124c1.282.582 2.782.83 4.13.872 1.89.063 4.042-.186 5.76-1.08.478.146.847.81 1.26 1.122l.022.02.022.022.021.02.022.021s.022 0 .022.02c0 0 .022 0 .022.022 0 0 .021 0 .021.02h.457s.021 0 .021-.02h.022s.022 0 .022-.021h.022s.021 0 .021-.02c0 0 .022 0 .022-.022l.022-.02s.022 0 .022-.021l.021-.021h.022l.043-.042.044-.02h.022l.021-.021h.022l.022-.02.022-.022.021-.02.022-.021.022-.02.022-.022.021-.02v-.021s0-.021.022-.021v-.02s0-.022.022-.022v-.02s0-.021.022-.021v-.29s-.066 0-.066-.022l-.065-.02v-.021l.065-.02s.044 0 .044-.022l.022-.02v-.437s0-.02-.022-.02v-.021s0-.02-.022-.02v-.022s0-.02-.022-.02c0 0 0-.021-.021-.021 0 0 0-.02-.022-.02 0 0 0-.022-.022-.022 0 0 0-.02-.022-.02 0 0 0-.021-.021-.021 0 0 0-.021-.022-.021 0 0 0-.02-.022-.02 0 0 0-.022-.022-.022 0 0 0-.02-.021-.02 0 0 0-.021-.022-.021 0 0 0-.02-.022-.02 0 0 0-.022-.022-.022 0 0 0-.02-.021-.02l-.022-.021-.022-.02-.021-.022-.022-.02-.022-.021-.022-.021-.021-.02-.022-.022-.022-.02-.022-.021-.021-.02-.022-.022v-.02l-.022-.021-.022-.02-.021-.022-.022-.02-.022-.021-.021-.021-.022-.02-.022-.022-.022-.02-.021-.021-.022-.02-.022-.022-.022-.02-.021-.021-.022-.02-.022-.022-.022-.02-.021-.021-.022-.021a4.969 4.969 0 0 0 1.108-1.433c1.283-2.45 1.065-5.441.892-8.141h.021c.022 0 .044.02.044.02h.065s.022 0 .022.022h.021s.022 0 .022.02l.044.021c.37.25 1.173.602 1.217-.166.348.125-.065-.374-.283-.52zM8.91 6.564c-.696-3.323 4.868-3.946 5.064-.706.174 2.7-4.347 3.385-5.064.706zm7.846 3.115c-.283.29-.587.25-.891.145 0 .395.087.81.022 1.226-.11.187-.326.207-.5.29a.726.726 0 0 1-.565-.415l-.044-.02c-.848 1.08-1.37-.23-1.13-1.04-.261.022-.478-.04-.652-.31-.304-.54.152-1.205.739-1.309.152.623 1.89.54 2.195-.042.674.312 1.413.893.826 1.475zm-1.522-3.634c-.195-2.866 4.413-3.635 5.086-.831.761 3.115-4.52 3.925-5.086.83zm-5.085-.727c-.413 0-.761.353-.761.789 0 .436.348.79.76.79.413 0 .761-.354.761-.79 0-.436-.326-.79-.76-.79zm.347 1.183c-.108 0-.174-.083-.174-.207 0-.104.087-.208.174-.208.109 0 .174.083.174.208 0 .104-.065.207-.174.207zm6.043-1.37c-.413 0-.74.353-.74.789 0 .436.327.79.74.79s.739-.354.739-.79c0-.436-.326-.79-.74-.79zm.347 1.163c-.087 0-.174-.083-.174-.208 0-.104.087-.208.174-.208s.174.084.174.208c0 .125-.087.208-.174.208z"
    fill-rule="nonzero"
    opacity=".9"
  />
</svg>
