<?xml version="1.0" encoding="UTF-8" standalone="no"?>
<svg
  viewBox="0 0 30 30"
  width="25px"
  height="25px"
  xmlns="http://www.w3.org/2000/svg"
>
  <path
    d="M10.888 22.427c-4.459 1.245 2.713 3.819 8.39 1.387-.93-.362-1.597-.779-1.597-.779-2.531.479-3.706.516-6.004.254-1.897-.218-.79-.862-.79-.862zm7.71-2.43c-3.355.645-5.293.625-7.748.371-1.899-.196-.656-1.116-.656-1.116-4.91 1.63 2.734 3.48 9.597 1.472-.73-.257-1.193-.727-1.193-.727zm2.63-14.073s-9.927 2.478-5.186 7.942c1.4 1.611-.367 3.06-.367 3.06s3.552-1.833 1.921-4.13c-1.524-2.141-2.692-3.205 3.632-6.872zm2.323 18.851s.82.676-.903 1.199c-3.277.992-13.64 1.292-16.517.04-1.034-.45.905-1.075 1.516-1.207.636-.137 1-.112 1-.112-1.151-.81-7.438 1.591-3.193 2.28 11.574 1.876 21.099-.845 18.097-2.2zm-3.978-7.047c.556-.38 1.325-.709 1.325-.709s-2.19.391-4.37.575c-2.671.224-5.536.268-6.973.076-3.404-.456 1.866-1.708 1.866-1.708s-2.047-.138-4.564 1.08c-2.976 1.439 7.363 2.095 12.716.686zm1.303 3.519c-.025.067-.109.143-.109.143 7.266-1.91 4.594-6.733 1.12-5.512-.304.108-.464.359-.464.359s.192-.078.622-.168c1.756-.366 4.272 2.351-1.17 5.178zm-6.14-5.337c-1.072-2.423-4.707-4.543.002-8.261C20.608 3.015 17.596 0 17.596 0c1.215 4.788-4.286 6.234-6.272 9.216-1.353 2.031.664 4.214 3.412 6.694zm6.336 12.022c-4.457.84-9.955.741-13.216.203 0 0 .668.553 4.1.774 5.222.334 13.242-.186 13.432-2.657 0 0-.365.937-4.316 1.68z"
    fill-rule="evenodd"
  />
</svg>
