<?xml version="1.0" encoding="UTF-8" standalone="no"?>
<svg
  viewBox="0 0 30 30"
  width="25px"
  height="25px"
  xmlns="http://www.w3.org/2000/svg"
>
  <path
    d="M12.441 21.508c-.582 1.153-1.694 1.91-2.982 2.276-1.98.443-3.872.19-5.28-.633-.943-.563-1.68-1.43-2.179-2.43l3.005-1.793c.026.011.105.15.21.33.384.625.714 1.068 1.364 1.379.638.212 2.039.348 2.58-.746.33-.557.225-2.346.225-4.326 0-3.11.015-6.209.015-9.284h3.696c0 3.383.019 6.587 0 9.888.007 2.024.188 3.828-.654 5.34zm15.332-1.017c-1.285 4.281-8.447 4.42-11.31 1.592-.604-.666-.983-1.014-1.344-1.783 1.521-.852 1.521-.852 3.001-1.686.804 1.204 1.547 1.866 2.885 2.137 1.814.216 3.64-.392 3.23-2.27-.42-1.533-3.715-1.906-5.957-3.546-2.276-1.489-2.81-5.108-.94-7.176.624-.765 1.687-1.336 2.803-1.61l1.164-.147c2.235-.044 3.632.531 4.657 1.647.286.282.519.586.954 1.244-1.19.74-1.187.732-2.892 1.808-.364-.764-.969-1.244-1.607-1.453-.992-.292-2.243.026-2.502 1.047-.09.315-.072.607.071 1.127.402.893 1.75 1.281 2.96 1.823 3.482 1.376 4.658 2.85 4.947 4.607.278 1.512-.067 2.492-.12 2.639z"
    fill-rule="evenodd"
  />
</svg>
