<?xml version="1.0" encoding="UTF-8" standalone="no"?>
<svg
  viewBox="0 0 30 30"
  width="25px"
  height="25px"
  xmlns="http://www.w3.org/2000/svg"
>
  <path
    d="M26.785 22.67c-1.527-.042-2.694.103-3.691.531-.284.122-.736.125-.782.487.156.167.18.415.304.62.238.392.64.92.999 1.195.392.302.796.624 1.216.885.747.465 1.582.73 2.302 1.195.424.275.845.62 1.259.93.205.153.342.391.608.487v-.044c-.14-.182-.176-.43-.304-.62l-.565-.576c-.552-.746-1.253-1.403-1.998-1.947-.594-.435-1.923-1.022-2.17-1.726l-.044-.045c.42-.048.914-.203 1.303-.31.653-.178 1.236-.132 1.91-.31l.912-.265v-.177c-.34-.357-.583-.828-.955-1.151-.973-.844-2.034-1.687-3.127-2.39-.606-.39-1.355-.644-1.998-.974-.216-.112-.595-.17-.738-.355-.338-.438-.521-.994-.782-1.504a57.488 57.488 0 0 1-1.563-3.365c-.33-.768-.545-1.525-.955-2.213-1.973-3.305-4.095-5.3-7.383-7.26C9.843 3.35 9 3.186 8.11 2.97l-1.433-.089c-.292-.124-.595-.487-.868-.664-1.09-.701-3.884-2.227-4.69-.221-.51 1.266.76 2.501 1.215 3.143.32.45.728.954.956 1.46.15.333.176.667.304 1.019.315.867.59 1.81.999 2.611.206.406.434.833.695 1.195.16.223.434.321.477.665-.268.382-.283.976-.434 1.46-.679 2.182-.423 4.893.565 6.508.302.496 1.016 1.559 1.997 1.15.859-.355.667-1.46.913-2.434.055-.22.02-.383.13-.531v.044l.782 1.594c.578.95 1.605 1.942 2.475 2.612.451.347.807.947 1.39 1.15V23.6h-.043c-.113-.18-.29-.254-.435-.398-.34-.34-.718-.762-.998-1.15-.792-1.096-1.491-2.294-2.128-3.542-.305-.596-.57-1.253-.826-1.86-.099-.233-.098-.587-.304-.708-.28.444-.695.804-.912 1.328-.347.839-.392 1.862-.52 2.922-.077.028-.043.009-.088.044-.605-.149-.817-.783-1.042-1.328-.569-1.377-.674-3.594-.174-5.179.13-.41.714-1.702.478-2.08-.113-.379-.487-.598-.695-.886a7.018 7.018 0 0 1-.695-1.24c-.466-1.073-.683-2.279-1.173-3.364-.234-.519-.63-1.044-.955-1.505-.36-.511-.763-.887-1.043-1.505-.099-.22-.234-.571-.087-.797.047-.152.113-.216.261-.266.252-.198.954.066 1.216.177.696.295 1.278.576 1.868.974.283.192.57.562.912.664h.39c.612.143 1.297.045 1.868.221 1.01.313 1.914.8 2.736 1.329 2.503 1.61 4.55 3.904 5.95 6.64.225.44.323.86.521 1.328.4.942.904 1.911 1.303 2.833.397.92.784 1.847 1.346 2.612.296.402 1.436.618 1.955.841.363.156.958.32 1.303.531.657.404 1.294.885 1.91 1.328.309.221 1.256.707 1.303 1.107zM7.372 5.805a3.05 3.05 0 0 0-.782.088v.044h.044c.152.318.42.523.607.797l.435.93.043-.044c.27-.194.392-.503.39-.974-.107-.116-.123-.26-.216-.399-.124-.184-.364-.288-.52-.442z"
    fill-rule="nonzero"
  />
</svg>
