<?xml version="1.0" encoding="UTF-8" standalone="no"?>
<svg
  viewBox="0 0 30 30"
  width="25px"
  height="25px"
  xmlns="http://www.w3.org/2000/svg"
>
  <path
    d="M12.951 25.537h1.983l-1.049-1.686-1.923 3.049h-.876l2.34-3.663a.553.553 0 0 1 .46-.237c.181 0 .35.086.45.231l2.349 3.669h-.876l-.413-.681h-2.007l-.438-.682zm9.095.682v-3.182h-.743v3.493c0 .096.037.188.108.259a.38.38 0 0 0 .271.11h3.388l.438-.68h-3.462zm-12.292-.57a1.305 1.305 0 1 0 0-2.612h-3.25V26.9h.743v-3.182h2.458c.345 0 .623.28.623.626a.624.624 0 0 1-.623.626l-2.095-.003L9.828 26.9h1.08l-1.493-1.252h.34zm-7.822 1.25a1.93 1.93 0 1 1 0-3.862h2.245c1.067 0 1.932.866 1.932 1.933a1.93 1.93 0 0 1-1.932 1.93H1.932zm2.195-.68a1.251 1.251 0 0 0 0-2.5H1.981a1.249 1.249 0 1 0 0 2.5h2.146zm14.108.68a1.931 1.931 0 1 1 0-3.862h2.667l-.435.681h-2.182a1.25 1.25 0 1 0 0 2.5h2.679l-.438.682h-2.29zm9.086-.68c-.57 0-1.054-.383-1.202-.91h3.175l.438-.681h-3.613c.148-.524.632-.91 1.202-.91h2.18l.44-.681h-2.67a1.931 1.931 0 0 0 0 3.863h2.291l.438-.681h-2.68zM24 14v3c-2 2-5.79 3-8 3h-2c-2.21 0-6-1-8-3v-3c1 2 4.79 3 7 3h4c2.21 0 6-1 7-3zm0-5v3c-2 2-5.79 3-8 3h-2c-2.21 0-6-1-8-3V9c1 2 4.79 3 7 3h4c2.21 0 6-1 7-3zm-9-7c4.97 0 9 1.79 9 4s-4.03 4-9 4-9-1.79-9-4 4.03-4 9-4z"
    fill-rule="nonzero"
  />
</svg>
