<?xml version="1.0" encoding="UTF-8" standalone="no"?>
<svg
  viewBox="0 0 30 30"
  width="25px"
  height="25px"
  xmlns="http://www.w3.org/2000/svg"
>
  <path
    d="M12.212 14.597h5.541c1.543 0 2.758-1.305 2.758-2.854V6.46c0-1.503-1.26-2.633-2.766-2.883a17.23 17.23 0 0 0-2.886-.227 15.48 15.48 0 0 0-2.623.227C9.888 3.99 9.489 4.859 9.489 6.46v2.056H15v.76H7.357c-1.612 0-3.024.97-3.465 2.815-.51 2.113-.532 3.405 0 5.611.394 1.642 1.336 2.786 2.948 2.786h1.89v-2.48c0-1.831 1.602-3.411 3.483-3.411zm-.35-7.432a1.047 1.047 0 0 1-1.04-1.054c0-.585.466-1.06 1.04-1.06.574 0 1.042.475 1.042 1.06 0 .583-.468 1.054-1.041 1.054zM25.974 18H28a2 2 0 0 1 2 2v8a2 2 0 0 1-2 2h-6a2 2 0 0 1-2-2v-3.14c-.52.66-1.374 1.07-2.242 1.321-2.101.61-3.764.516-5.52 0-1.467-.431-2.749-1.316-2.749-2.819V18.08c0-1.52 1.205-2.912 2.723-2.912h5.541c1.847 0 3.518-1.514 3.518-3.424V9.276h2.03c1.614 0 2.375 1.21 2.774 2.815.554 2.229.579 3.873 0 5.611l-.102.298zM20 20.488h-5v.76h5v-.76zm-1.898 2.17c.576 0 1.042.47 1.042 1.053 0 .585-.466 1.06-1.042 1.06a1.052 1.052 0 0 1-1.04-1.06c0-.583.467-1.054 1.04-1.054zM28 23a2 2 0 0 1-2 2h-2v1h4v2h-6v-3a2 2 0 0 1 2-2h2v-1h-4v-2h4a2 2 0 0 1 2 2v1z"
    fill-rule="evenodd"
  />
</svg>
