<?xml version="1.0" encoding="UTF-8" standalone="no"?>
<svg
  viewBox="0 0 30 30"
  width="25px"
  height="25px"
  xmlns="http://www.w3.org/2000/svg"
>
  <path
    d="M10.03 23.938l14.533 1.983c-1.663-2.767-3.282-5.463-4.914-8.182l-9.619 6.199zM25.937 8.62c-.43.644-.86 1.288-1.288 1.934-1.473 2.215-2.945 4.43-4.416 6.646-.082.124-.188.222-.073.412 1.422 2.347 2.832 4.7 4.246 7.053.223.371.448.741.737 1.098L26 8.639l-.063-.018zM6.534 15.939c.066.063.232.1.31.061 1.363-.67 2.735-1.325 4.068-2.05.435-.236.77-.66 1.144-1.004 1.241-1.138 2.48-2.278 3.718-3.418.076-.07.166-.138.21-.226.445-.87.883-1.743 1.335-2.642-.54-.203-1.051-.401-1.569-.582-.07-.024-.18.025-.257.067-1.199.67-2.42 1.304-3.58 2.034-.582.366-1.055.904-1.569 1.373-.829.756-1.656 1.515-2.473 2.284a4.258 4.258 0 0 0-.583.684c-.559.813-1.1 1.638-1.667 2.486.317.328.604.641.913.933zm4.983-1.112l-2.05 8.657 9.629-6.204-7.58-2.453zm13.587-6.179l-8.183 1.367 2.777 6.755 5.406-8.122zM11.63 14.241l7.428 2.411-2.747-6.69-4.68 4.279zM6.636 17.61l-2.6 6.214 4.952-.146-2.352-6.068zm2.41 4.627l.062-.014c.594-2.471 1.197-4.926 1.804-7.495L6.94 16.793c.677 1.76 1.4 3.616 2.107 5.444zm15.06-13.99c-.791-.21-1.582-.42-2.373-.627-1.137-.3-2.275-.594-3.41-.896-.143-.038-.246-.062-.33.109-.4.822-.815 1.639-1.223 2.459-.012.025-.01.058-.02.122l7.354-1.115.001-.052zm-4.588-1.871l6.445 1.783-1.065-3.034-5.37 1.19-.01.061zM9.593 24.412c-.798-.092-1.618-.007-2.427.007-.665.011-1.33.036-1.995.057a.264.264 0 0 0-.205.09l16.492 1.525.01-.074-5.286-.721c-2.196-.3-4.388-.63-6.59-.884zm-5.448-2.484c.709-1.644 1.414-3.289 2.125-4.931.071-.165.066-.277-.073-.41-.298-.283-.574-.588-.9-.926L4 22.064l.048.023c.033-.053.073-.103.097-.16zM18.107 5.942c1.195-.308 2.407-.55 3.611-.818.078-.017.155-.043.231-.065L21.938 5l-5.177.696c.486.213.86.371 1.346.246z"
    fill-rule="evenodd"
  />
</svg>
