<?xml version="1.0" encoding="UTF-8" standalone="no"?>
<svg
  viewBox="0 0 30 30"
  width="25px"
  height="25px"
  xmlns="http://www.w3.org/2000/svg"
>
  <path
    d="M26 9.465c0-.467-.046-.98-.14-1.448a5.506 5.506 0 0 0-.467-1.401c-.234-.42-.514-.841-.841-1.168-.327-.327-.747-.654-1.168-.84-.42-.234-.887-.375-1.354-.468-.468-.094-.98-.094-1.448-.14H9.044c-.373 0-.747.046-1.074.093-.374.047-.7.14-1.027.281-.094.046-.234.093-.327.14a5.95 5.95 0 0 0-.887.607c-.094.094-.187.14-.28.234-.328.326-.655.747-.842 1.167-.233.42-.374.888-.467 1.402-.094.467-.094.98-.14 1.448v11.163c0 .467.046.98.14 1.448.093.467.234.934.467 1.401.234.42.514.841.841 1.168.327.327.747.654 1.168.84.42.234.887.375 1.354.468.468.094.98.094 1.448.14H20.582c.467 0 .98-.046 1.448-.14.467-.093.934-.234 1.354-.467.42-.234.841-.514 1.168-.841.327-.327.654-.747.84-1.168.234-.42.375-.887.468-1.401.094-.467.094-.98.14-1.448V9.465zm-7.3 11.544c-1.96 1.132-4.655 1.249-7.367.087a11.52 11.52 0 0 1-5.184-4.438c.56.467 1.214.84 1.915 1.168 2.8 1.312 5.6 1.223 7.57.003-.002 0-.002-.002-.003-.003-2.803-2.149-5.185-4.951-6.96-7.24-.374-.373-.654-.84-.934-1.261 2.148 1.962 5.558 4.437 6.773 5.138-2.57-2.71-4.858-6.072-4.765-5.979 4.064 4.11 7.847 6.446 7.847 6.446.126.07.222.13.3.182a6.11 6.11 0 0 0 .214-.65c.654-2.381-.094-5.09-1.728-7.332 3.783 2.288 6.026 6.585 5.092 10.182a6.399 6.399 0 0 1-.08.287l.032.04c1.869 2.335 1.355 4.811 1.122 4.344-1.014-1.983-2.89-1.376-3.843-.974z"
    fill-rule="evenodd"
  />
</svg>
